<?xml version="1.0" encoding="UTF-8" standalone="no"?>
<!-- Created with Inkscape (http://www.inkscape.org/) -->

<svg
   xmlns:dc="http://purl.org/dc/elements/1.1/"
   xmlns:cc="http://creativecommons.org/ns#"
   xmlns:rdf="http://www.w3.org/1999/02/22-rdf-syntax-ns#"
   xmlns:svg="http://www.w3.org/2000/svg"
   xmlns="http://www.w3.org/2000/svg"
   xmlns:sodipodi="http://sodipodi.sourceforge.net/DTD/sodipodi-0.dtd"
   xmlns:inkscape="http://www.inkscape.org/namespaces/inkscape"
   width="30mm"
   height="30mm"
   viewBox="0 0 30 30"
   version="1.1"
   id="svg8"
   inkscape:version="0.92.2 5c3e80d, 2017-08-06"
   sodipodi:docname="OMD_logo_small_square.svg"
   inkscape:export-filename="/Volumes/estremo/Google Drive/Copy/doctorate/00 Doctorate/04 ICONS/OMD_logo_small.png"
   inkscape:export-xdpi="200.02"
   inkscape:export-ydpi="200.02">
  <defs
     id="defs2" />
  <sodipodi:namedview
     id="base"
     pagecolor="#ffffff"
     bordercolor="#666666"
     borderopacity="1.0"
     inkscape:pageopacity="0.0"
     inkscape:pageshadow="2"
     inkscape:zoom="6.2108389"
     inkscape:cx="58.230782"
     inkscape:cy="45.825372"
     inkscape:document-units="mm"
     inkscape:current-layer="layer1"
     showgrid="false"
     inkscape:window-width="1280"
     inkscape:window-height="717"
     inkscape:window-x="0"
     inkscape:window-y="1"
     inkscape:window-maximized="1"
     units="mm" />
  <metadata
     id="metadata5">
    <rdf:RDF>
      <cc:Work
         rdf:about="">
        <dc:format>image/svg+xml</dc:format>
        <dc:type
           rdf:resource="http://purl.org/dc/dcmitype/StillImage" />
        <dc:title />
      </cc:Work>
    </rdf:RDF>
  </metadata>
  <g
     inkscape:label="Layer 1"
     inkscape:groupmode="layer"
     id="layer1"
     transform="translate(0,-266.99998)">
    <g
       aria-label="÷oMD"
       style="font-style:normal;font-variant:normal;font-weight:bold;font-stretch:normal;font-size:10.58333302px;line-height:200%;font-family:Dosis;-inkscape-font-specification:'Dosis, Bold';font-variant-ligatures:normal;font-variant-caps:normal;font-variant-numeric:normal;font-feature-settings:normal;text-align:start;letter-spacing:0px;word-spacing:0px;writing-mode:lr-tb;text-anchor:start;fill:#000000;fill-opacity:1;stroke:none;stroke-width:0.26458332px;stroke-linecap:butt;stroke-linejoin:miter;stroke-opacity:1"
       id="text893">
      <path
         d="m 3.7831553,283.68272 q -0.127,-0.14816 -0.127,-0.381 0,-0.23283 0.127,-0.381 0.127,-0.15875 0.3175,-0.15875 h 3.3549165 q 0.1799167,0 0.3175,0.15875 0.1375834,0.15875 0.1375834,0.381 0,0.23284 -0.1375834,0.381 -0.1375833,0.13759 -0.3175,0.13759 H 4.1006553 q -0.1905,0 -0.3175,-0.13759 z m 1.3123333,1.40759 q 0,-0.26459 0.1905,-0.4445 0.2010833,-0.17992 0.4656666,-0.17992 0.2434167,0 0.4445,0.17992 0.2010833,0.17991 0.2010833,0.4445 0,0.254 -0.2010833,0.4445 -0.2010833,0.17991 -0.4445,0.17991 -0.2645833,0 -0.4656666,-0.17991 -0.1905,-0.1905 -0.1905,-0.4445 z m 0.1905,-3.15384 q -0.1905,-0.1905 -0.1905,-0.4445 0,-0.254 0.1905,-0.43391 0.2010833,-0.1905 0.4656666,-0.1905 0.2434167,0 0.4445,0.1905 0.2010833,0.17991 0.2010833,0.43391 0,0.254 -0.2010833,0.4445 -0.2010833,0.17992 -0.4445,0.17992 -0.2645833,0 -0.4656666,-0.17992 z"
         style=""
         id="path814" />
      <path
         d="m 8.4748792,283.74622 v -0.86783 q 0,-0.86783 0.6773334,-1.50283 0.6773333,-0.64559 1.6192504,-0.64559 0.920749,0 1.608666,0.635 0.687917,0.635 0.687917,1.51342 v 0.86783 q 0,0.85725 -0.687917,1.51342 -0.687917,0.65617 -1.608666,0.65617 -0.9207505,0 -1.6086671,-0.65617 -0.6879167,-0.65617 -0.6879167,-1.51342 z m 1.36525,0 q 0,0.381 0.2751668,0.67734 0.275167,0.29633 0.656167,0.29633 0.370416,0 0.645583,-0.29633 0.28575,-0.29634 0.28575,-0.67734 v -0.86783 q 0,-0.35983 -0.28575,-0.65617 -0.275167,-0.29633 -0.645583,-0.29633 -0.381,0 -0.656167,0.29633 -0.2751668,0.28575 -0.2751668,0.65617 z"
         style=""
         id="path816" />
      <path
         d="m 13.980197,285.38664 v -6.61458 q 0,-0.34925 0.1905,-0.51859 0.201083,-0.16933 0.497417,-0.16933 0.391583,0 0.60325,0.13758 0.211666,0.13759 0.465666,0.59267 l 1.30175,2.37067 1.30175,-2.37067 q 0.254,-0.45508 0.465667,-0.59267 0.22225,-0.13758 0.613833,-0.13758 0.296333,0 0.486833,0.16933 0.201084,0.16934 0.201084,0.51859 v 6.61458 q 0,0.20108 -0.211667,0.3175 -0.201083,0.11642 -0.47625,0.11642 -0.28575,0 -0.486833,-0.11642 -0.201084,-0.11642 -0.201084,-0.3175 v -4.55083 l -1.238249,2.20133 q -0.148167,0.27517 -0.465667,0.27517 -0.306917,0 -0.455083,-0.27517 l -1.217084,-2.286 v 4.6355 q 0,0.20108 -0.211666,0.3175 -0.201084,0.11642 -0.47625,0.11642 -0.28575,0 -0.486834,-0.11642 -0.201083,-0.11642 -0.201083,-0.3175 z"
         style=""
         id="path818" />
      <path
         d="m 21.380261,285.39722 v -6.88975 q 0,-0.16933 0.169334,-0.29633 0.169333,-0.127 0.433916,-0.127 h 1.87325 q 1.132417,0 1.80975,0.58208 0.677334,0.58209 0.677334,1.8415 v 2.88925 q 0,1.25942 -0.677334,1.8415 -0.677333,0.58209 -1.80975,0.58209 h -1.87325 q -0.264583,0 -0.433916,-0.127 -0.169334,-0.127 -0.169334,-0.29634 z m 1.375834,-0.78316 h 1.100666 q 1.11125,0 1.11125,-1.21709 v -2.88925 q 0,-1.21708 -1.11125,-1.21708 h -1.100666 z"
         style=""
         id="path820" />
    </g>
  </g>
</svg>
