<?xml version="1.0" encoding="UTF-8" standalone="no"?>
<!-- Created with Inkscape (http://www.inkscape.org/) -->

<svg
   xmlns:dc="http://purl.org/dc/elements/1.1/"
   xmlns:cc="http://creativecommons.org/ns#"
   xmlns:rdf="http://www.w3.org/1999/02/22-rdf-syntax-ns#"
   xmlns:svg="http://www.w3.org/2000/svg"
   xmlns="http://www.w3.org/2000/svg"
   xmlns:sodipodi="http://sodipodi.sourceforge.net/DTD/sodipodi-0.dtd"
   xmlns:inkscape="http://www.inkscape.org/namespaces/inkscape"
   width="86mm"
   height="11mm"
   viewBox="0 0 86 11"
   version="1.1"
   id="svg8"
   inkscape:version="0.92.2 5c3e80d, 2017-08-06"
   sodipodi:docname="OMD_logo_large.svg"
   inkscape:export-filename="OMD_logo_large.png"
   inkscape:export-xdpi="200.02"
   inkscape:export-ydpi="200.02">
  <defs
     id="defs2" />
  <sodipodi:namedview
     id="base"
     pagecolor="#ffffff"
     bordercolor="#666666"
     borderopacity="1.0"
     inkscape:pageopacity="0.0"
     inkscape:pageshadow="2"
     inkscape:zoom="3.112059"
     inkscape:cx="287.3303"
     inkscape:cy="-13.502296"
     inkscape:document-units="mm"
     inkscape:current-layer="layer1"
     showgrid="false"
     inkscape:window-width="1280"
     inkscape:window-height="717"
     inkscape:window-x="0"
     inkscape:window-y="1"
     inkscape:window-maximized="1" />
  <metadata
     id="metadata5">
    <rdf:RDF>
      <cc:Work
         rdf:about="">
        <dc:format>image/svg+xml</dc:format>
        <dc:type
           rdf:resource="http://purl.org/dc/dcmitype/StillImage" />
        <dc:title />
      </cc:Work>
    </rdf:RDF>
  </metadata>
  <g
     inkscape:label="Layer 1"
     inkscape:groupmode="layer"
     id="layer1"
     transform="translate(0,-286)">
    <g
       aria-label="÷÷÷OpenMetaDesign"
       style="font-style:normal;font-variant:normal;font-weight:bold;font-stretch:normal;font-size:10.58333302px;line-height:200%;font-family:Dosis;-inkscape-font-specification:'Dosis, Bold';font-variant-ligatures:normal;font-variant-caps:normal;font-variant-numeric:normal;font-feature-settings:normal;text-align:start;letter-spacing:0px;word-spacing:0px;writing-mode:lr-tb;text-anchor:start;fill:#000000;fill-opacity:1;stroke:none;stroke-width:0.26458332px;stroke-linecap:butt;stroke-linejoin:miter;stroke-opacity:1"
       id="text893">
      <path
         d="M 0.127,292.06941 Q 0,291.92124 0,291.68841 q 0,-0.23283 0.127,-0.381 0.12699999,-0.15875 0.31749999,-0.15875 H 3.7994166 q 0.1799166,0 0.3174999,0.15875 0.1375834,0.15875 0.1375834,0.381 0,0.23283 -0.1375834,0.381 -0.1375833,0.13758 -0.3174999,0.13758 H 0.44449999 q -0.1905,0 -0.31749999,-0.13758 z m 1.3123333,1.40758 q 0,-0.26458 0.1905,-0.4445 0.2010833,-0.17991 0.4656666,-0.17991 0.2434167,0 0.4445,0.17991 0.2010834,0.17992 0.2010834,0.4445 0,0.254 -0.2010834,0.4445 -0.2010833,0.17992 -0.4445,0.17992 -0.2645833,0 -0.4656666,-0.17992 -0.1905,-0.1905 -0.1905,-0.4445 z m 0.1905,-3.15383 q -0.1905,-0.1905 -0.1905,-0.4445 0,-0.254 0.1905,-0.43391 0.2010833,-0.1905 0.4656666,-0.1905 0.2434167,0 0.4445,0.1905 0.2010834,0.17991 0.2010834,0.43391 0,0.254 -0.2010834,0.4445 -0.2010833,0.17992 -0.4445,0.17992 -0.2645833,0 -0.4656666,-0.17992 z"
         style=""
         id="path849" />
      <path
         d="m 4.8398906,292.06941 q -0.127,-0.14817 -0.127,-0.381 0,-0.23283 0.127,-0.381 0.127,-0.15875 0.3175,-0.15875 h 3.3549166 q 0.1799166,0 0.3175,0.15875 0.1375833,0.15875 0.1375833,0.381 0,0.23283 -0.1375833,0.381 -0.1375834,0.13758 -0.3175,0.13758 H 5.1573906 q -0.1905,0 -0.3175,-0.13758 z m 1.3123333,1.40758 q 0,-0.26458 0.1905,-0.4445 0.2010833,-0.17991 0.4656667,-0.17991 0.2434166,0 0.4444999,0.17991 0.2010834,0.17992 0.2010834,0.4445 0,0.254 -0.2010834,0.4445 -0.2010833,0.17992 -0.4444999,0.17992 -0.2645834,0 -0.4656667,-0.17992 -0.1905,-0.1905 -0.1905,-0.4445 z m 0.1905,-3.15383 q -0.1905,-0.1905 -0.1905,-0.4445 0,-0.254 0.1905,-0.43391 0.2010833,-0.1905 0.4656667,-0.1905 0.2434166,0 0.4444999,0.1905 0.2010834,0.17991 0.2010834,0.43391 0,0.254 -0.2010834,0.4445 -0.2010833,0.17992 -0.4444999,0.17992 -0.2645834,0 -0.4656667,-0.17992 z"
         style=""
         id="path851" />
      <path
         d="m 9.5527812,292.06941 q -0.1269999,-0.14817 -0.1269999,-0.381 0,-0.23283 0.1269999,-0.381 0.127,-0.15875 0.3175,-0.15875 h 3.3549168 q 0.179916,0 0.3175,0.15875 0.137583,0.15875 0.137583,0.381 0,0.23283 -0.137583,0.381 -0.137584,0.13758 -0.3175,0.13758 H 9.8702812 q -0.1905,0 -0.3175,-0.13758 z m 1.3123338,1.40758 q 0,-0.26458 0.1905,-0.4445 0.201083,-0.17991 0.465666,-0.17991 0.243417,0 0.4445,0.17991 0.201084,0.17992 0.201084,0.4445 0,0.254 -0.201084,0.4445 -0.201083,0.17992 -0.4445,0.17992 -0.264583,0 -0.465666,-0.17992 -0.1905,-0.1905 -0.1905,-0.4445 z m 0.1905,-3.15383 q -0.1905,-0.1905 -0.1905,-0.4445 0,-0.254 0.1905,-0.43391 0.201083,-0.1905 0.465666,-0.1905 0.243417,0 0.4445,0.1905 0.201084,0.17991 0.201084,0.43391 0,0.254 -0.201084,0.4445 -0.201083,0.17992 -0.4445,0.17992 -0.264583,0 -0.465666,-0.17992 z"
         style=""
         id="path853" />
      <path
         d="m 14.456172,291.84716 v -2.95275 q 0,-1.25941 0.66675,-1.8415 0.677333,-0.58208 1.80975,-0.58208 1.132416,0 1.80975,0.58208 0.677333,0.58209 0.677333,1.8415 v 2.95275 q 0,1.25942 -0.677333,1.8415 -0.677334,0.58208 -1.80975,0.58208 -1.132417,0 -1.80975,-0.58208 -0.66675,-0.58208 -0.66675,-1.8415 z m 1.375833,0 q 0,1.21708 1.100667,1.21708 1.11125,0 1.11125,-1.21708 v -2.95275 q 0,-1.21708 -1.11125,-1.21708 -1.100667,0 -1.100667,1.21708 z"
         style=""
         id="path855" />
      <path
         d="m 20.440053,296.11224 v -6.50874 q 0,-0.1905 0.179917,-0.30692 0.1905,-0.11642 0.465667,-0.11642 0.275166,0 0.455083,0.11642 0.179917,0.11642 0.179917,0.30692 v 0.3175 q 0.201083,-0.33867 0.5715,-0.5715 0.381,-0.23284 0.85725,-0.23284 0.79375,0 1.344083,0.635 0.550333,0.62442 0.550333,1.51342 v 0.86783 q 0,0.85725 -0.560916,1.51342 -0.560917,0.65616 -1.291167,0.65616 -0.455083,0 -0.846667,-0.24341 -0.381,-0.254 -0.53975,-0.59267 v 2.64583 q 0,0.16934 -0.211666,0.29634 -0.201084,0.13758 -0.486834,0.13758 -0.28575,0 -0.47625,-0.13758 -0.1905,-0.127 -0.1905,-0.29634 z m 1.36525,-3.78883 q 0,0.21167 0.28575,0.49742 0.28575,0.28575 0.645584,0.28575 0.370416,0 0.656166,-0.29634 0.28575,-0.30691 0.28575,-0.67733 v -0.86783 q 0,-0.37042 -0.28575,-0.65617 -0.28575,-0.29633 -0.677333,-0.29633 -0.359833,0 -0.635,0.26458 -0.275167,0.26458 -0.275167,0.68792 z"
         style=""
         id="path857" />
      <path
         d="m 25.737343,292.13291 v -0.89958 q 0,-0.86784 0.677333,-1.49225 0.677334,-0.62442 1.640417,-0.62442 0.899583,0 1.534583,0.5715 0.645584,0.56092 0.645584,1.41817 0,0.3175 -0.08467,0.52916 -0.07408,0.20109 -0.243417,0.28575 -0.15875,0.0847 -0.296333,0.10584 -0.137583,0.0212 -0.359833,0.0212 h -2.148417 v 0.15875 q 0,0.45509 0.338667,0.74084 0.338666,0.27516 0.899583,0.27516 0.402167,0 0.79375,-0.20108 0.391583,-0.20108 0.508,-0.20108 0.22225,0 0.370417,0.21166 0.148166,0.20109 0.148166,0.39159 0,0.29633 -0.53975,0.59266 -0.529166,0.28575 -1.322916,0.28575 -1.132417,0 -1.852084,-0.59266 -0.709083,-0.60325 -0.709083,-1.57692 z m 1.36525,-0.889 h 1.545167 q 0.169333,0 0.232833,-0.0529 0.07408,-0.0635 0.07408,-0.23283 0,-0.37042 -0.275166,-0.60325 -0.264584,-0.23283 -0.656167,-0.23283 -0.370417,0 -0.645583,0.23283 -0.275167,0.22225 -0.275167,0.59267 z"
         style=""
         id="path859" />
      <path
         d="m 31.054146,293.77333 v -4.16983 q 0,-0.1905 0.179916,-0.30692 0.1905,-0.11642 0.497417,-0.11642 0.254,0 0.423333,0.11642 0.179917,0.11642 0.179917,0.30692 v 0.3175 q 0.169333,-0.33867 0.53975,-0.5715 0.381,-0.23284 0.878417,-0.23284 0.73025,0 1.27,0.635 0.550333,0.635 0.550333,1.51342 v 2.50825 q 0,0.20108 -0.211667,0.3175 -0.201083,0.11641 -0.47625,0.11641 -0.264583,0 -0.47625,-0.11641 -0.201083,-0.11642 -0.201083,-0.3175 v -2.50825 q 0,-0.37042 -0.275167,-0.65617 -0.275166,-0.29633 -0.645583,-0.29633 -0.34925,0 -0.613833,0.26458 -0.254,0.26458 -0.254,0.68792 v 2.50825 q 0,0.15875 -0.211667,0.29633 -0.201083,0.13758 -0.47625,0.13758 -0.28575,0 -0.486833,-0.127 -0.1905,-0.13758 -0.1905,-0.30691 z"
         style=""
         id="path861" />
      <path
         d="m 36.637678,293.77333 v -6.61458 q 0,-0.34925 0.1905,-0.51859 0.201084,-0.16933 0.497417,-0.16933 0.391583,0 0.60325,0.13758 0.211667,0.13759 0.465667,0.59267 l 1.30175,2.37067 1.30175,-2.37067 q 0.254,-0.45508 0.465666,-0.59267 0.22225,-0.13758 0.613834,-0.13758 0.296333,0 0.486833,0.16933 0.201083,0.16934 0.201083,0.51859 v 6.61458 q 0,0.20108 -0.211666,0.3175 -0.201084,0.11641 -0.47625,0.11641 -0.28575,0 -0.486834,-0.11641 -0.201083,-0.11642 -0.201083,-0.3175 v -4.55083 l -1.23825,2.20133 q -0.148167,0.27516 -0.465667,0.27516 -0.306916,0 -0.455083,-0.27516 l -1.217083,-2.286 v 4.6355 q 0,0.20108 -0.211667,0.3175 -0.201083,0.11641 -0.47625,0.11641 -0.28575,0 -0.486833,-0.11641 -0.201084,-0.11642 -0.201084,-0.3175 z"
         style=""
         id="path863" />
      <path
         d="m 43.6794,292.13291 v -0.89958 q 0,-0.86784 0.677333,-1.49225 0.677333,-0.62442 1.640417,-0.62442 0.899583,0 1.534583,0.5715 0.645583,0.56092 0.645583,1.41817 0,0.3175 -0.08467,0.52916 -0.07408,0.20109 -0.243417,0.28575 -0.15875,0.0847 -0.296333,0.10584 -0.137584,0.0212 -0.359834,0.0212 H 45.04465 v 0.15875 q 0,0.45509 0.338666,0.74084 0.338667,0.27516 0.899584,0.27516 0.402166,0 0.79375,-0.20108 0.391583,-0.20108 0.508,-0.20108 0.22225,0 0.370416,0.21166 0.148167,0.20109 0.148167,0.39159 0,0.29633 -0.53975,0.59266 -0.529167,0.28575 -1.322917,0.28575 -1.132416,0 -1.852083,-0.59266 -0.709083,-0.60325 -0.709083,-1.57692 z m 1.36525,-0.889 h 1.545166 q 0.169334,0 0.232834,-0.0529 0.07408,-0.0635 0.07408,-0.23283 0,-0.37042 -0.275167,-0.60325 -0.264583,-0.23283 -0.656166,-0.23283 -0.370417,0 -0.645584,0.23283 -0.275166,0.22225 -0.275166,0.59267 z"
         style=""
         id="path865" />
      <path
         d="m 48.985617,292.49274 v -5.13291 q 0,-0.17992 0.211667,-0.29633 0.211667,-0.127 0.465667,-0.127 0.275166,0 0.47625,0.127 0.211666,0.11641 0.211666,0.29633 v 1.82033 H 51.5997 q 0.15875,0 0.254,0.14817 0.09525,0.14817 0.09525,0.34925 0,0.20108 -0.09525,0.34925 -0.09525,0.14816 -0.254,0.14816 h -1.248833 v 2.31775 q 0,0.30692 0.127,0.43392 0.137584,0.127 0.465667,0.127 h 0.41275 q 0.275166,0 0.423333,0.16933 0.15875,0.16934 0.15875,0.40217 0,0.24342 -0.15875,0.41275 -0.148167,0.16933 -0.423333,0.16933 h -0.41275 q -1.957917,0 -1.957917,-1.7145 z"
         style=""
         id="path867" />
      <path
         d="m 52.37923,292.89491 q 0,-0.85725 0.635,-1.2065 0.635,-0.34925 1.830917,-0.34925 h 0.433917 v -0.13758 q 0,-0.39159 -0.232834,-0.67734 -0.22225,-0.29633 -0.6985,-0.29633 -0.47625,0 -0.814916,0.16933 -0.338667,0.15875 -0.391584,0.15875 -0.211666,0 -0.338666,-0.21166 -0.127,-0.21167 -0.127,-0.46567 0,-0.30691 0.53975,-0.52916 0.550333,-0.23284 1.153583,-0.23284 1.153583,0 1.7145,0.59267 0.560917,0.58208 0.560917,1.47108 v 2.59292 q 0,0.17991 -0.1905,0.30691 -0.1905,0.127 -0.47625,0.127 -0.264584,0 -0.4445,-0.127 -0.169334,-0.127 -0.169334,-0.30691 v -0.30692 q -0.73025,0.83608 -1.608666,0.83608 -0.60325,0 -0.994834,-0.35983 -0.381,-0.35983 -0.381,-1.04775 z m 1.36525,-0.17992 q 0,0.28575 0.148167,0.43392 0.15875,0.13758 0.41275,0.13758 0.338667,0 0.656167,-0.3175 0.3175,-0.3175 0.3175,-0.6985 v -0.22225 h -0.15875 q -0.645584,0 -1.016,0.13759 -0.359834,0.127 -0.359834,0.52916 z"
         style=""
         id="path869" />
      <path
         d="m 57.700995,293.78391 v -6.88975 q 0,-0.16933 0.169333,-0.29633 0.169333,-0.127 0.433917,-0.127 h 1.87325 q 1.132416,0 1.80975,0.58208 0.677333,0.58209 0.677333,1.8415 v 2.88925 q 0,1.25942 -0.677333,1.8415 -0.677334,0.58208 -1.80975,0.58208 h -1.87325 q -0.264584,0 -0.433917,-0.127 -0.169333,-0.127 -0.169333,-0.29633 z m 1.375833,-0.78317 h 1.100667 q 1.11125,0 1.11125,-1.21708 v -2.88925 q 0,-1.21708 -1.11125,-1.21708 h -1.100667 z"
         style=""
         id="path871" />
      <path
         d="m 63.543822,292.13291 v -0.89958 q 0,-0.86784 0.677333,-1.49225 0.677333,-0.62442 1.640417,-0.62442 0.899583,0 1.534583,0.5715 0.645583,0.56092 0.645583,1.41817 0,0.3175 -0.08467,0.52916 -0.07408,0.20109 -0.243416,0.28575 -0.15875,0.0847 -0.296334,0.10584 -0.137583,0.0212 -0.359833,0.0212 h -2.148416 v 0.15875 q 0,0.45509 0.338666,0.74084 0.338667,0.27516 0.899584,0.27516 0.402166,0 0.79375,-0.20108 0.391583,-0.20108 0.507999,-0.20108 0.22225,0 0.370417,0.21166 0.148167,0.20109 0.148167,0.39159 0,0.29633 -0.53975,0.59266 -0.529167,0.28575 -1.322917,0.28575 -1.132416,0 -1.852083,-0.59266 -0.709083,-0.60325 -0.709083,-1.57692 z m 1.36525,-0.889 h 1.545166 q 0.169334,0 0.232834,-0.0529 0.07408,-0.0635 0.07408,-0.23283 0,-0.37042 -0.275167,-0.60325 -0.264583,-0.23283 -0.656166,-0.23283 -0.370417,0 -0.645584,0.23283 -0.275166,0.22225 -0.275166,0.59267 z"
         style=""
         id="path873" />
      <path
         d="m 68.574869,293.39233 q 0,-0.1905 0.137583,-0.39159 0.137583,-0.21166 0.3175,-0.21166 0.116417,0 0.28575,0.11641 0.179917,0.11642 0.465667,0.24342 0.28575,0.11642 0.677333,0.11642 0.772583,0 0.772583,-0.45509 0,-0.254 -0.264583,-0.40216 -0.254,-0.14817 -0.624417,-0.24342 -0.359833,-0.0953 -0.73025,-0.22225 -0.370416,-0.13758 -0.635,-0.4445 -0.254,-0.3175 -0.254,-0.80433 0,-0.64559 0.455084,-1.11125 0.455083,-0.46567 1.439333,-0.46567 0.656167,0 1.164167,0.20109 0.518583,0.20108 0.518583,0.48683 0,0.17991 -0.148167,0.42333 -0.137583,0.23283 -0.34925,0.23283 -0.08467,0 -0.465666,-0.14816 -0.370417,-0.15875 -0.6985,-0.15875 -0.359834,0 -0.550334,0.14816 -0.1905,0.14817 -0.1905,0.32809 0,0.17991 0.1905,0.29633 0.1905,0.11642 0.465667,0.17992 0.28575,0.0635 0.613833,0.17991 0.328084,0.10584 0.60325,0.254 0.28575,0.14817 0.47625,0.46567 0.1905,0.30692 0.1905,0.75142 0,0.71966 -0.518583,1.13241 -0.508,0.41275 -1.42875,0.41275 -0.79375,0 -1.354667,-0.27516 -0.560916,-0.27517 -0.560916,-0.635 z"
         style=""
         id="path875" />
      <path
         d="m 73.168699,287.39158 q 0,-0.27517 0.211667,-0.46567 0.22225,-0.20108 0.53975,-0.20108 0.306917,0 0.518583,0.20108 0.22225,0.1905 0.22225,0.46567 0,0.26458 -0.22225,0.46567 -0.211666,0.20108 -0.518583,0.20108 -0.3175,0 -0.53975,-0.20108 -0.211667,-0.20109 -0.211667,-0.46567 z m 0.07408,6.38175 v -4.16983 q 0,-0.1905 0.1905,-0.30692 0.1905,-0.11642 0.486833,-0.11642 0.296333,0 0.486833,0.11642 0.201084,0.11642 0.201084,0.30692 v 4.16983 q 0,0.15875 -0.211667,0.29633 -0.201083,0.13758 -0.47625,0.13758 -0.28575,0 -0.486833,-0.127 -0.1905,-0.13758 -0.1905,-0.30691 z"
         style=""
         id="path877" />
      <path
         d="m 75.290823,295.05391 q 0,-0.73025 0.772583,-1.12183 -0.4445,-0.21167 -0.4445,-0.67734 0,-0.46566 0.53975,-0.8255 -0.656166,-0.508 -0.656166,-1.34408 v -0.22225 q 0,-0.77258 0.5715,-1.25941 0.5715,-0.48684 1.49225,-0.48684 0.6985,0 1.2065,0.30692 0.3175,-0.71967 0.645583,-0.71967 0.243417,0 0.391583,0.13759 0.148167,0.13758 0.148167,0.28575 0,0.16933 -0.169333,0.29633 -0.391584,0.27517 -0.497417,0.40217 0.370417,0.43391 0.370417,1.03716 v 0.22225 q 0,0.762 -0.592667,1.27 -0.582083,0.49742 -1.502833,0.49742 -0.381,0 -0.687917,-0.0952 -0.127,0.10583 -0.127,0.21166 0,0.17992 0.328083,0.26459 0.328084,0.0847 0.79375,0.14816 0.47625,0.0529 0.941917,0.16934 0.465667,0.10583 0.79375,0.4445 0.328083,0.33866 0.328083,0.889 0,0.8255 -0.66675,1.23825 -0.66675,0.42333 -1.640416,0.42333 -0.98425,0 -1.661584,-0.40217 -0.677333,-0.40216 -0.677333,-1.09008 z m 1.291167,-0.13758 q 0,0.34925 0.296333,0.55033 0.296333,0.20108 0.73025,0.20108 0.433917,0 0.719667,-0.20108 0.28575,-0.20108 0.28575,-0.53975 0,-0.14817 -0.05292,-0.26458 -0.05292,-0.10584 -0.1905,-0.17992 -0.127,-0.0741 -0.232833,-0.127 -0.09525,-0.0423 -0.3175,-0.0847 -0.22225,-0.0317 -0.328084,-0.0423 -0.09525,-0.0106 -0.338666,-0.0423 -0.5715,0.26458 -0.5715,0.73025 z m 0.243416,-3.84175 q 0,0.41275 0.201084,0.68791 0.201083,0.26459 0.560916,0.26459 0.34925,0 0.550334,-0.254 0.201083,-0.26459 0.201083,-0.68792 v -0.22225 q 0,-0.39158 -0.211667,-0.65617 -0.201083,-0.26458 -0.550333,-0.26458 -0.34925,0 -0.550333,0.26458 -0.201084,0.254 -0.201084,0.65617 z"
         style=""
         id="path879" />
      <path
         d="m 80.642845,293.77333 v -4.16983 q 0,-0.1905 0.179917,-0.30692 0.1905,-0.11642 0.497416,-0.11642 0.254,0 0.423334,0.11642 0.179916,0.11642 0.179916,0.30692 v 0.3175 q 0.169334,-0.33867 0.53975,-0.5715 0.381,-0.23284 0.878417,-0.23284 0.73025,0 1.27,0.635 0.550333,0.635 0.550333,1.51342 v 2.50825 q 0,0.20108 -0.211666,0.3175 -0.201084,0.11641 -0.47625,0.11641 -0.264584,0 -0.47625,-0.11641 -0.201084,-0.11642 -0.201084,-0.3175 v -2.50825 q 0,-0.37042 -0.275166,-0.65617 -0.275167,-0.29633 -0.645584,-0.29633 -0.34925,0 -0.613833,0.26458 -0.254,0.26458 -0.254,0.68792 v 2.50825 q 0,0.15875 -0.211667,0.29633 -0.201083,0.13758 -0.47625,0.13758 -0.28575,0 -0.486833,-0.127 -0.1905,-0.13758 -0.1905,-0.30691 z"
         style=""
         id="path881" />
    </g>
  </g>
</svg>
