<?xml version="1.0" encoding="UTF-8" standalone="no"?>
<!-- Created with Inkscape (http://www.inkscape.org/) -->

<svg
   xmlns:osb="http://www.openswatchbook.org/uri/2009/osb"
   xmlns:dc="http://purl.org/dc/elements/1.1/"
   xmlns:cc="http://creativecommons.org/ns#"
   xmlns:rdf="http://www.w3.org/1999/02/22-rdf-syntax-ns#"
   xmlns:svg="http://www.w3.org/2000/svg"
   xmlns="http://www.w3.org/2000/svg"
   xmlns:sodipodi="http://sodipodi.sourceforge.net/DTD/sodipodi-0.dtd"
   xmlns:inkscape="http://www.inkscape.org/namespaces/inkscape"
   width="80"
   height="92"
   viewBox="0 0 74.999999 86.250002"
   id="svg2"
   version="1.1"
   inkscape:version="0.92.2 5c3e80d, 2017-08-06"
   sodipodi:docname="as_rules_label.svg"
   inkscape:export-filename="/Volumes/estremo/Google Drive/Copy/openp2pdesign.org/2017/SERVDES18/images/even_newer_viz/viz-sketch_09.png"
   inkscape:export-xdpi="200.05524"
   inkscape:export-ydpi="200.05524"
   style="enable-background:new">
  <defs
     id="defs4">
    <marker
       inkscape:isstock="true"
       style="overflow:visible"
       id="marker12580"
       refX="0"
       refY="0"
       orient="auto"
       inkscape:stockid="TriangleOutM">
      <path
         transform="scale(0.4)"
         style="fill:#8eff55;fill-opacity:1;fill-rule:evenodd;stroke:#8eff55;stroke-width:1.00000003pt;stroke-opacity:1"
         d="M 5.77,0 -2.88,5 V -5 Z"
         id="path12578"
         inkscape:connector-curvature="0" />
    </marker>
    <marker
       inkscape:isstock="true"
       style="overflow:visible"
       id="marker12574"
       refX="0"
       refY="0"
       orient="auto"
       inkscape:stockid="TriangleOutM">
      <path
         transform="scale(0.4)"
         style="fill:#ff5555;fill-opacity:1;fill-rule:evenodd;stroke:#ff5555;stroke-width:1.00000003pt;stroke-opacity:1"
         d="M 5.77,0 -2.88,5 V -5 Z"
         id="path12572"
         inkscape:connector-curvature="0" />
    </marker>
    <marker
       inkscape:isstock="true"
       style="overflow:visible"
       id="marker12417"
       refX="0"
       refY="0"
       orient="auto"
       inkscape:stockid="TriangleOutM">
      <path
         transform="scale(0.4)"
         style="fill:#6ae0ff;fill-opacity:1;fill-rule:evenodd;stroke:#6ae0ff;stroke-width:1.00000003pt;stroke-opacity:1"
         d="M 5.77,0 -2.88,5 V -5 Z"
         id="path12415"
         inkscape:connector-curvature="0" />
    </marker>
    <marker
       inkscape:stockid="EmptyTriangleOutM"
       orient="auto"
       refY="0"
       refX="0"
       id="EmptyTriangleOutM"
       style="overflow:visible"
       inkscape:isstock="true">
      <path
         id="path12304"
         d="M 5.77,0 -2.88,5 V -5 Z"
         style="fill:#ffffff;fill-rule:evenodd;stroke:#ff5555;stroke-width:1.00000003pt;stroke-opacity:1"
         transform="matrix(0.4,0,0,0.4,-1.8,0)"
         inkscape:connector-curvature="0" />
    </marker>
    <marker
       inkscape:stockid="TriangleOutL"
       orient="auto"
       refY="0"
       refX="0"
       id="TriangleOutL"
       style="overflow:visible"
       inkscape:isstock="true">
      <path
         id="path12283"
         d="M 5.77,0 -2.88,5 V -5 Z"
         style="fill:#ff5555;fill-opacity:1;fill-rule:evenodd;stroke:#ff5555;stroke-width:1.00000003pt;stroke-opacity:1"
         transform="scale(0.8)"
         inkscape:connector-curvature="0" />
    </marker>
    <marker
       inkscape:stockid="Arrow1Lend"
       orient="auto"
       refY="0"
       refX="0"
       id="marker12404"
       style="overflow:visible"
       inkscape:isstock="true">
      <path
         id="path12144"
         d="M 0,0 5,-5 -12.5,0 5,5 Z"
         style="fill:#ff5555;fill-opacity:1;fill-rule:evenodd;stroke:#ff5555;stroke-width:1.00000003pt;stroke-opacity:1"
         transform="matrix(-0.8,0,0,-0.8,-10,0)"
         inkscape:connector-curvature="0" />
    </marker>
    <marker
       inkscape:stockid="Arrow1Send"
       orient="auto"
       refY="0"
       refX="0"
       id="marker47057"
       style="overflow:visible"
       inkscape:isstock="true">
      <path
         id="path47055"
         d="M 0,0 5,-5 -12.5,0 5,5 Z"
         style="fill:#ff5555;fill-opacity:1;fill-rule:evenodd;stroke:#ff5555;stroke-width:1.00000003pt;stroke-opacity:1"
         transform="matrix(-0.2,0,0,-0.2,-1.2,0)"
         inkscape:connector-curvature="0" />
    </marker>
    <marker
       inkscape:isstock="true"
       style="overflow:visible"
       id="marker8689"
       refX="0"
       refY="0"
       orient="auto"
       inkscape:stockid="Arrow1Send">
      <path
         transform="matrix(-0.2,0,0,-0.2,-1.2,0)"
         style="fill:#aade87;fill-opacity:1;fill-rule:evenodd;stroke:#aade87;stroke-width:1.00000003pt;stroke-opacity:1"
         d="M 0,0 5,-5 -12.5,0 5,5 Z"
         id="path8687"
         inkscape:connector-curvature="0" />
    </marker>
    <marker
       inkscape:stockid="TriangleOutM"
       orient="auto"
       refY="0"
       refX="0"
       id="TriangleOutM"
       style="overflow:visible"
       inkscape:isstock="true">
      <path
         id="path8374"
         d="M 5.77,0 -2.88,5 V -5 Z"
         style="fill:#55d400;fill-opacity:1;fill-rule:evenodd;stroke:#55d400;stroke-width:1.00000003pt;stroke-opacity:1"
         transform="scale(0.4)"
         inkscape:connector-curvature="0" />
    </marker>
    <marker
       inkscape:stockid="TriangleOutS"
       orient="auto"
       refY="0"
       refX="0"
       id="TriangleOutS"
       style="overflow:visible"
       inkscape:isstock="true">
      <path
         id="path8377"
         d="M 5.77,0 -2.88,5 V -5 Z"
         style="fill:#55d400;fill-opacity:1;fill-rule:evenodd;stroke:#55d400;stroke-width:1.00000003pt;stroke-opacity:1"
         transform="scale(0.2)"
         inkscape:connector-curvature="0" />
    </marker>
    <marker
       inkscape:stockid="Arrow1Mend"
       orient="auto"
       refY="0"
       refX="0"
       id="Arrow1Mend"
       style="overflow:visible"
       inkscape:isstock="true">
      <path
         id="path8238"
         d="M 0,0 5,-5 -12.5,0 5,5 Z"
         style="fill:#55d400;fill-opacity:1;fill-rule:evenodd;stroke:#55d400;stroke-width:1.00000003pt;stroke-opacity:1"
         transform="matrix(-0.4,0,0,-0.4,-4,0)"
         inkscape:connector-curvature="0" />
    </marker>
    <marker
       inkscape:stockid="Arrow2Mstart"
       orient="auto"
       refY="0"
       refX="0"
       id="marker12203"
       style="overflow:visible"
       inkscape:isstock="true">
      <path
         id="path12201"
         style="fill:#37abc8;fill-opacity:1;fill-rule:evenodd;stroke:#37abc8;stroke-width:0.625;stroke-linejoin:round;stroke-opacity:1"
         d="M 8.7185878,4.0337352 -2.2072895,0.01601326 8.7185884,-4.0017078 c -1.7454984,2.3720609 -1.7354408,5.6174519 -6e-7,8.035443 z"
         transform="scale(0.6)"
         inkscape:connector-curvature="0" />
    </marker>
    <marker
       inkscape:isstock="true"
       style="overflow:visible"
       id="marker11813"
       refX="0"
       refY="0"
       orient="auto"
       inkscape:stockid="Arrow2Mstart">
      <path
         transform="scale(0.6)"
         d="M 8.7185878,4.0337352 -2.2072895,0.01601326 8.7185884,-4.0017078 c -1.7454984,2.3720609 -1.7354408,5.6174519 -6e-7,8.035443 z"
         style="fill:#37abc8;fill-opacity:1;fill-rule:evenodd;stroke:#37abc8;stroke-width:0.625;stroke-linejoin:round;stroke-opacity:1"
         id="path11811"
         inkscape:connector-curvature="0" />
    </marker>
    <marker
       inkscape:isstock="true"
       style="overflow:visible"
       id="Arrow1Mstart"
       refX="0"
       refY="0"
       orient="auto"
       inkscape:stockid="Arrow1Mstart">
      <path
         transform="matrix(0.4,0,0,0.4,4,0)"
         style="fill:#000000;fill-opacity:1;fill-rule:evenodd;stroke:#000000;stroke-width:1.00000003pt;stroke-opacity:1"
         d="M 0,0 5,-5 -12.5,0 5,5 Z"
         id="path6360"
         inkscape:connector-curvature="0" />
    </marker>
    <marker
       inkscape:stockid="Arrow2Mend"
       orient="auto"
       refY="0"
       refX="0"
       id="marker11051"
       style="overflow:visible"
       inkscape:isstock="true">
      <path
         id="path11049"
         style="fill:#000000;fill-opacity:1;fill-rule:evenodd;stroke:#000000;stroke-width:0.625;stroke-linejoin:round;stroke-opacity:1"
         d="M 8.7185878,4.0337352 -2.2072895,0.01601326 8.7185884,-4.0017078 c -1.7454984,2.3720609 -1.7354408,5.6174519 -6e-7,8.035443 z"
         transform="scale(-0.6)"
         inkscape:connector-curvature="0" />
    </marker>
    <marker
       inkscape:isstock="true"
       style="overflow:visible"
       id="marker10963"
       refX="0"
       refY="0"
       orient="auto"
       inkscape:stockid="Arrow2Mstart">
      <path
         transform="scale(0.6)"
         d="M 8.7185878,4.0337352 -2.2072895,0.01601326 8.7185884,-4.0017078 c -1.7454984,2.3720609 -1.7354408,5.6174519 -6e-7,8.035443 z"
         style="fill:#000000;fill-opacity:1;fill-rule:evenodd;stroke:#000000;stroke-width:0.625;stroke-linejoin:round;stroke-opacity:1"
         id="path10961"
         inkscape:connector-curvature="0" />
    </marker>
    <linearGradient
       osb:paint="solid"
       id="linearGradient10099">
      <stop
         id="stop10097"
         offset="0"
         style="stop-color:#3f6684;stop-opacity:1;" />
    </linearGradient>
    <linearGradient
       id="linearGradient10089">
      <stop
         style="stop-color:#3f6684;stop-opacity:1;"
         offset="0"
         id="stop10087" />
    </linearGradient>
    <marker
       inkscape:isstock="true"
       style="overflow:visible"
       id="Arrow2Mend"
       refX="0"
       refY="0"
       orient="auto"
       inkscape:stockid="Arrow2Mend">
      <path
         transform="scale(-0.6)"
         d="M 8.7185878,4.0337352 -2.2072895,0.01601326 8.7185884,-4.0017078 c -1.7454984,2.3720609 -1.7354408,5.6174519 -6e-7,8.035443 z"
         style="fill:#3f6684;fill-opacity:1;fill-rule:evenodd;stroke:#3f6684;stroke-width:0.625;stroke-linejoin:round;stroke-opacity:1"
         id="path6381"
         inkscape:connector-curvature="0" />
    </marker>
    <marker
       inkscape:isstock="true"
       style="overflow:visible"
       id="Arrow2Mstart"
       refX="0"
       refY="0"
       orient="auto"
       inkscape:stockid="Arrow2Mstart">
      <path
         transform="scale(0.6)"
         d="M 8.7185878,4.0337352 -2.2072895,0.01601326 8.7185884,-4.0017078 c -1.7454984,2.3720609 -1.7354408,5.6174519 -6e-7,8.035443 z"
         style="fill:#000000;fill-opacity:1;fill-rule:evenodd;stroke:#000000;stroke-width:0.625;stroke-linejoin:round;stroke-opacity:1"
         id="path6378"
         inkscape:connector-curvature="0" />
    </marker>
    <marker
       inkscape:stockid="Arrow2Mend"
       orient="auto"
       refY="0"
       refX="0"
       id="marker9114"
       style="overflow:visible"
       inkscape:isstock="true">
      <path
         id="path9112"
         style="fill:#3f6684;fill-opacity:1;fill-rule:evenodd;stroke:#3f6684;stroke-width:0.625;stroke-linejoin:round;stroke-opacity:1"
         d="M 8.7185878,4.0337352 -2.2072895,0.01601326 8.7185884,-4.0017078 c -1.7454984,2.3720609 -1.7354408,5.6174519 -6e-7,8.035443 z"
         transform="scale(-0.6)"
         inkscape:connector-curvature="0" />
    </marker>
    <marker
       inkscape:isstock="true"
       style="overflow:visible"
       id="marker8876"
       refX="0"
       refY="0"
       orient="auto"
       inkscape:stockid="Arrow2Mend">
      <path
         transform="scale(-0.6)"
         d="M 8.7185878,4.0337352 -2.2072895,0.01601326 8.7185884,-4.0017078 c -1.7454984,2.3720609 -1.7354408,5.6174519 -6e-7,8.035443 z"
         style="fill:#3f6684;fill-opacity:1;fill-rule:evenodd;stroke:#3f6684;stroke-width:0.625;stroke-linejoin:round;stroke-opacity:1"
         id="path8874"
         inkscape:connector-curvature="0" />
    </marker>
    <marker
       inkscape:stockid="Arrow2Mend"
       orient="auto"
       refY="0"
       refX="0"
       id="marker7758"
       style="overflow:visible"
       inkscape:isstock="true">
      <path
         id="path7756"
         style="fill:#3f6684;fill-opacity:1;fill-rule:evenodd;stroke:#3f6684;stroke-width:0.625;stroke-linejoin:round;stroke-opacity:1"
         d="M 8.7185878,4.0337352 -2.2072895,0.01601326 8.7185884,-4.0017078 c -1.7454984,2.3720609 -1.7354408,5.6174519 -6e-7,8.035443 z"
         transform="scale(-0.6)"
         inkscape:connector-curvature="0" />
    </marker>
    <marker
       inkscape:isstock="true"
       style="overflow:visible"
       id="Arrow1Lend"
       refX="0"
       refY="0"
       orient="auto"
       inkscape:stockid="Arrow1Lend">
      <path
         transform="matrix(-0.8,0,0,-0.8,-10,0)"
         style="fill:#3f6684;fill-opacity:1;fill-rule:evenodd;stroke:#3f6684;stroke-width:1.00000003pt;stroke-opacity:1"
         d="M 0,0 5,-5 -12.5,0 5,5 Z"
         id="path6357"
         inkscape:connector-curvature="0" />
    </marker>
    <clipPath
       id="clipPath1418"
       clipPathUnits="userSpaceOnUse">
      <path
         style="clip-rule:evenodd"
         inkscape:connector-curvature="0"
         id="path1416"
         d="M 28,28 H 568 V 814 H 28 Z" />
    </clipPath>
    <clipPath
       id="clipPath1434"
       clipPathUnits="userSpaceOnUse">
      <path
         style="clip-rule:evenodd"
         inkscape:connector-curvature="0"
         id="path1432"
         d="m 87,83.5 h 22.5 v 10 H 87 Z" />
    </clipPath>
    <clipPath
       id="clipPath1456"
       clipPathUnits="userSpaceOnUse">
      <path
         style="clip-rule:evenodd"
         inkscape:connector-curvature="0"
         id="path1454"
         d="M 28,28 H 568 V 814 H 28 Z" />
    </clipPath>
    <clipPath
       id="clipPath1472"
       clipPathUnits="userSpaceOnUse">
      <path
         style="clip-rule:evenodd"
         inkscape:connector-curvature="0"
         id="path1470"
         d="M 149.5,83.5 H 172 v 10 h -22.5 z" />
    </clipPath>
    <clipPath
       id="clipPath1494"
       clipPathUnits="userSpaceOnUse">
      <path
         style="clip-rule:evenodd"
         inkscape:connector-curvature="0"
         id="path1492"
         d="M 28,28 H 568 V 814 H 28 Z" />
    </clipPath>
    <clipPath
       id="clipPath1508"
       clipPathUnits="userSpaceOnUse">
      <path
         style="clip-rule:evenodd"
         inkscape:connector-curvature="0"
         id="path1506"
         d="m 38,134 h 22.5 v 10 H 38 Z" />
    </clipPath>
    <clipPath
       id="clipPath1530"
       clipPathUnits="userSpaceOnUse">
      <path
         style="clip-rule:evenodd"
         inkscape:connector-curvature="0"
         id="path1528"
         d="M 28,28 H 568 V 814 H 28 Z" />
    </clipPath>
    <clipPath
       id="clipPath1596"
       clipPathUnits="userSpaceOnUse">
      <path
         style="clip-rule:evenodd"
         inkscape:connector-curvature="0"
         id="path1594"
         d="m 38,203.5 h 22.5 v 10 H 38 Z" />
    </clipPath>
    <clipPath
       id="clipPath1618"
       clipPathUnits="userSpaceOnUse">
      <path
         style="clip-rule:evenodd"
         inkscape:connector-curvature="0"
         id="path1616"
         d="M 28,28 H 568 V 814 H 28 Z" />
    </clipPath>
    <clipPath
       id="clipPath1648"
       clipPathUnits="userSpaceOnUse">
      <path
         style="clip-rule:evenodd"
         inkscape:connector-curvature="0"
         id="path1646"
         d="m 218,203.5 h 22.5 v 10 H 218 Z" />
    </clipPath>
    <clipPath
       id="clipPath1670"
       clipPathUnits="userSpaceOnUse">
      <path
         style="clip-rule:evenodd"
         inkscape:connector-curvature="0"
         id="path1668"
         d="M 28,28 H 568 V 814 H 28 Z" />
    </clipPath>
    <clipPath
       id="clipPath1700"
       clipPathUnits="userSpaceOnUse">
      <path
         style="clip-rule:evenodd"
         inkscape:connector-curvature="0"
         id="path1698"
         d="m 398,203.5 h 22.5 v 10 H 398 Z" />
    </clipPath>
    <clipPath
       id="clipPath1722"
       clipPathUnits="userSpaceOnUse">
      <path
         style="clip-rule:evenodd"
         inkscape:connector-curvature="0"
         id="path1720"
         d="M 28,28 H 568 V 814 H 28 Z" />
    </clipPath>
    <clipPath
       id="clipPath2057"
       clipPathUnits="userSpaceOnUse">
      <path
         style="clip-rule:evenodd"
         inkscape:connector-curvature="0"
         id="path2055"
         d="M 28,28 H 568 V 814 H 28 Z" />
    </clipPath>
    <clipPath
       id="clipPath2071"
       clipPathUnits="userSpaceOnUse">
      <path
         style="clip-rule:evenodd"
         inkscape:connector-curvature="0"
         id="path2069"
         d="m 36,28.5 h 524 v 599 H 36 Z" />
    </clipPath>
    <mask
       maskUnits="userSpaceOnUse"
       id="mask15347">
      <rect
         style="opacity:1;fill:#ffffff;fill-opacity:1;stroke:#000000;stroke-width:0;stroke-miterlimit:4;stroke-dasharray:none;stroke-dashoffset:0;stroke-opacity:1"
         id="rect15349"
         width="104.48958"
         height="25.287432"
         x="545.82678"
         y="297.55621" />
    </mask>
    <clipPath
       id="clipPath16042"
       clipPathUnits="userSpaceOnUse">
      <path
         style="clip-rule:evenodd"
         inkscape:connector-curvature="0"
         id="path16040"
         d="M 28,28 H 568 V 814 H 28 Z" />
    </clipPath>
    <clipPath
       id="clipPath16058"
       clipPathUnits="userSpaceOnUse">
      <path
         style="clip-rule:evenodd"
         inkscape:connector-curvature="0"
         id="path16056"
         d="m 110.5,51 h 375 v 150 h -375 z" />
    </clipPath>
    <linearGradient
       id="linearGradient16234"
       spreadMethod="pad"
       gradientTransform="matrix(418.75,0,0,96.666669,-478.44883,-5.0280175)"
       gradientUnits="userSpaceOnUse"
       y2="0"
       x2="1"
       y1="0"
       x1="0">
      <stop
         id="stop16230"
         offset="0"
         style="stop-opacity:1;stop-color:#39c7ea" />
      <stop
         id="stop16232"
         offset="1"
         style="stop-opacity:1;stop-color:#4cdcba" />
    </linearGradient>
    <clipPath
       id="clipPath16280"
       clipPathUnits="userSpaceOnUse">
      <path
         style="clip-rule:evenodd"
         inkscape:connector-curvature="0"
         id="path16278"
         d="M 28,28 H 568 V 814 H 28 Z" />
    </clipPath>
    <clipPath
       id="clipPath16470"
       clipPathUnits="userSpaceOnUse">
      <path
         style="clip-rule:evenodd"
         inkscape:connector-curvature="0"
         id="path16468"
         d="m 201,439 h 31 v 15 h -31 z" />
    </clipPath>
    <clipPath
       id="clipPath16484"
       clipPathUnits="userSpaceOnUse">
      <path
         style="clip-rule:evenodd"
         inkscape:connector-curvature="0"
         id="path16482"
         d="M 28,28 H 568 V 814 H 28 Z" />
    </clipPath>
    <clipPath
       id="clipPath16514"
       clipPathUnits="userSpaceOnUse">
      <path
         style="clip-rule:evenodd"
         inkscape:connector-curvature="0"
         id="path16512"
         d="m 110.5,530 h 375 v 150 h -375 z" />
    </clipPath>
    <clipPath
       id="clipPath16792"
       clipPathUnits="userSpaceOnUse">
      <path
         style="clip-rule:evenodd"
         inkscape:connector-curvature="0"
         id="path16790"
         d="M 28,28 H 568 V 814 H 28 Z" />
    </clipPath>
    <clipPath
       clipPathUnits="userSpaceOnUse"
       id="clipPath16">
      <path
         d="M 0,38 H 38 V 0 H 0 Z"
         id="path18"
         inkscape:connector-curvature="0" />
    </clipPath>
    <clipPath
       clipPathUnits="userSpaceOnUse"
       id="clipPath16-2">
      <path
         d="M 0,38 H 38 V 0 H 0 Z"
         id="path18-2"
         inkscape:connector-curvature="0" />
    </clipPath>
    <clipPath
       clipPathUnits="userSpaceOnUse"
       id="clipPath16-4">
      <path
         d="M 0,38 H 38 V 0 H 0 Z"
         id="path18-0"
         inkscape:connector-curvature="0" />
    </clipPath>
    <clipPath
       clipPathUnits="userSpaceOnUse"
       id="clipPath16-5">
      <path
         d="M 0,38 H 38 V 0 H 0 Z"
         id="path18-7"
         inkscape:connector-curvature="0" />
    </clipPath>
    <clipPath
       clipPathUnits="userSpaceOnUse"
       id="clipPath16-0">
      <path
         d="M 0,38 H 38 V 0 H 0 Z"
         id="path18-5"
         inkscape:connector-curvature="0" />
    </clipPath>
    <clipPath
       clipPathUnits="userSpaceOnUse"
       id="clipPath16-3">
      <path
         d="M 0,38 H 38 V 0 H 0 Z"
         id="path18-03"
         inkscape:connector-curvature="0" />
    </clipPath>
  </defs>
  <sodipodi:namedview
     id="base"
     pagecolor="#ffffff"
     bordercolor="#666666"
     borderopacity="1.0"
     inkscape:pageopacity="0.0"
     inkscape:pageshadow="2"
     inkscape:zoom="1.3379691"
     inkscape:cx="-161.95257"
     inkscape:cy="-39.692996"
     inkscape:document-units="px"
     inkscape:current-layer="layer11"
     showgrid="false"
     borderlayer="true"
     inkscape:window-width="2223"
     inkscape:window-height="1193"
     inkscape:window-x="1426"
     inkscape:window-y="196"
     inkscape:window-maximized="0"
     showguides="true"
     inkscape:guide-bbox="true"
     objecttolerance="8"
     inkscape:measure-start="0,0"
     inkscape:measure-end="0,0"
     units="px">
    <inkscape:grid
       type="xygrid"
       id="grid4136" />
    <sodipodi:guide
       position="850.49072,25.880621"
       orientation="0,1"
       id="guide19460"
       inkscape:locked="false" />
  </sodipodi:namedview>
  <metadata
     id="metadata7">
    <rdf:RDF>
      <cc:Work
         rdf:about="">
        <dc:format>image/svg+xml</dc:format>
        <dc:type
           rdf:resource="http://purl.org/dc/dcmitype/StillImage" />
        <dc:title />
      </cc:Work>
    </rdf:RDF>
  </metadata>
  <g
     inkscape:groupmode="layer"
     id="layer11"
     inkscape:label="NUMEROS"
     transform="translate(0,-966.11215)">
    <path
       d="M 75,1003.6122 C 75,982.91215 58.200002,966.11215 37.49997,966.11215 16.762495,966.11215 0,982.91215 0,1003.6122 c 0,20.6999 16.762495,37.4999 37.49997,37.4999 20.700032,0 37.50003,-16.8 37.50003,-37.4999"
       style="display:inline;fill:#868686;fill-opacity:1;fill-rule:nonzero;stroke:none;stroke-width:3.74999976;stroke-linecap:butt;stroke-linejoin:miter;stroke-miterlimit:10;stroke-dasharray:none;stroke-opacity:1"
       id="path3120"
       inkscape:connector-curvature="0" />
    <path
       style="display:inline;fill:#f0f6f8;fill-opacity:1;stroke-width:0.39481682"
       id="path3122"
       d="m 18.638023,1020.0018 a 1.6597492,1.6597492 0 0 1 2.349178,-2.3453 l 0.686956,0.687 2.878211,-2.8979 a 1.6667205,1.6667205 0 1 1 2.34522,2.3689 l -2.878212,2.8782 -1.184429,1.1844 a 1.6582305,1.6582305 0 0 1 -2.345219,0 l -1.184429,-1.1844 z m 0.698837,-9.3532 1.184429,1.1844 a 1.6582305,1.6582305 0 0 0 2.345218,0 l 1.18443,-1.1844 2.878212,-2.8783 a 1.658315,1.658315 0 1 0 -2.345161,-2.3452 l -2.909831,2.8743 -0.686956,-0.687 a 1.6583203,1.6583203 0 0 0 -2.345218,2.3452 z m 11.994537,-0.4423 h 5.803823 a 1.5792701,1.5792701 0 0 0 0,-3.1585 h -5.815703 a 1.5792701,1.5792701 0 0 0 0,3.1585 z m -11.994537,-9.598 1.184429,1.1845 a 1.6582305,1.6582305 0 0 0 2.345218,0 l 1.18443,-1.1845 2.878212,-2.87818 a 1.658315,1.658315 0 1 0 -2.345161,-2.34523 l -2.909831,2.87432 -0.686956,-0.68702 a 1.6583203,1.6583203 0 0 0 -2.345218,2.34522 z m 0,-10.03618 1.184429,1.18442 a 1.6582305,1.6582305 0 0 0 2.345218,0 l 1.18443,-1.18442 2.878212,-2.87822 a 1.658315,1.658315 0 1 0 -2.345161,-2.34521 l -2.909831,2.85451 -0.686956,-0.67118 a 1.6583222,1.6583222 0 0 0 -2.345218,2.34522 z m 11.982657,9.59408 h 14.327936 a 1.579285,1.579285 0 0 0 0,-3.15857 H 31.319517 a 1.579285,1.579285 0 0 0 0,3.15857 z M 55.26515,986.95559 H 31.319517 a 1.5792701,1.5792701 0 0 0 0,3.15853 H 55.26515 a 1.5792701,1.5792701 0 1 0 0,-3.15853 z m -25.528832,31.70771 a 1.5792671,1.5792671 0 0 1 1.579298,-1.5792 h 7.193519 l 2.128073,-7.4028 a 3.9758047,3.9758047 0 0 1 1.006765,-1.7096 l 15.097815,-15.10567 v 17.58907 l -6.317078,6.3171 a 3.9718566,3.9718566 0 0 1 -1.709562,1.0068 l -8.381907,2.4043 a 1.6977121,1.6977121 0 0 1 -0.615977,0.054 h -0.0906 -8.291125 a 1.5792671,1.5792671 0 0 1 -1.59904,-1.5753 z m 12.440707,-4.0548 1.638462,1.6267 4.149523,-1.1845 a 1.1212796,1.1212796 0 0 0 0.481813,-0.2844 l 0.430209,-0.4302 a 25.220895,25.220895 0 0 1 -4.789138,-4.793 l -0.469814,0.4698 a 1.0896943,1.0896943 0 0 0 -0.315606,0.6949 z"
       inkscape:connector-curvature="0" />
    <g
       id="g1387"
       transform="translate(0,0.30606102)">
      <rect
         ry="2.9692051"
         rx="2.9692051"
         y="1033.0283"
         x="11.519459"
         height="19.027769"
         width="51.961086"
         id="rect6480"
         style="opacity:1;fill:#e8336d;fill-opacity:1;stroke:none;stroke-width:4.19389868;stroke-miterlimit:4;stroke-dasharray:none;stroke-dashoffset:0;stroke-opacity:1" />
      <text
         id="text6484"
         y="1047.691"
         x="21.259424"
         style="font-style:normal;font-variant:normal;font-weight:normal;font-stretch:normal;font-size:13.9536972px;line-height:100%;font-family:'Fira Sans';-inkscape-font-specification:'Fira Sans, Normal';font-variant-ligatures:normal;font-variant-caps:normal;font-variant-numeric:normal;font-feature-settings:normal;text-align:start;letter-spacing:0px;word-spacing:0px;writing-mode:lr-tb;text-anchor:start;fill:#ffffff;fill-opacity:1;stroke:none;stroke-width:0.95138836px;stroke-linecap:butt;stroke-linejoin:miter;stroke-opacity:1"
         xml:space="preserve"><tspan
           style="font-style:normal;font-variant:normal;font-weight:normal;font-stretch:normal;font-size:13.9536972px;line-height:100%;font-family:'Fira Sans';-inkscape-font-specification:'Fira Sans, Normal';font-variant-ligatures:normal;font-variant-caps:normal;font-variant-numeric:normal;font-feature-settings:normal;text-align:start;writing-mode:lr-tb;text-anchor:start;fill:#ffffff;fill-opacity:1;stroke-width:0.95138836px"
           y="1047.691"
           x="21.259424"
           id="tspan6482"
           sodipodi:role="line">rules</tspan></text>
    </g>
  </g>
</svg>
