<?xml version="1.0" encoding="UTF-8" standalone="no"?>
<!-- Created with Inkscape (http://www.inkscape.org/) -->

<svg
   xmlns:osb="http://www.openswatchbook.org/uri/2009/osb"
   xmlns:dc="http://purl.org/dc/elements/1.1/"
   xmlns:cc="http://creativecommons.org/ns#"
   xmlns:rdf="http://www.w3.org/1999/02/22-rdf-syntax-ns#"
   xmlns:svg="http://www.w3.org/2000/svg"
   xmlns="http://www.w3.org/2000/svg"
   xmlns:sodipodi="http://sodipodi.sourceforge.net/DTD/sodipodi-0.dtd"
   xmlns:inkscape="http://www.inkscape.org/namespaces/inkscape"
   width="500"
   height="500"
   viewBox="0 0 468.74999 468.75001"
   id="svg2"
   version="1.1"
   inkscape:version="0.92.2 5c3e80d, 2017-08-06"
   sodipodi:docname="as_community_font.svg"
   inkscape:export-filename="/Volumes/estremo/Google Drive/Copy/openp2pdesign.org/2017/SERVDES18/images/even_newer_viz/viz-sketch_09.png"
   inkscape:export-xdpi="200.05524"
   inkscape:export-ydpi="200.05524"
   style="enable-background:new">
  <defs
     id="defs4">
    <marker
       inkscape:isstock="true"
       style="overflow:visible"
       id="marker12580"
       refX="0"
       refY="0"
       orient="auto"
       inkscape:stockid="TriangleOutM">
      <path
         transform="scale(0.4)"
         style="fill:#8eff55;fill-opacity:1;fill-rule:evenodd;stroke:#8eff55;stroke-width:1.00000003pt;stroke-opacity:1"
         d="M 5.77,0 -2.88,5 V -5 Z"
         id="path12578"
         inkscape:connector-curvature="0" />
    </marker>
    <marker
       inkscape:isstock="true"
       style="overflow:visible"
       id="marker12574"
       refX="0"
       refY="0"
       orient="auto"
       inkscape:stockid="TriangleOutM">
      <path
         transform="scale(0.4)"
         style="fill:#ff5555;fill-opacity:1;fill-rule:evenodd;stroke:#ff5555;stroke-width:1.00000003pt;stroke-opacity:1"
         d="M 5.77,0 -2.88,5 V -5 Z"
         id="path12572"
         inkscape:connector-curvature="0" />
    </marker>
    <marker
       inkscape:isstock="true"
       style="overflow:visible"
       id="marker12417"
       refX="0"
       refY="0"
       orient="auto"
       inkscape:stockid="TriangleOutM">
      <path
         transform="scale(0.4)"
         style="fill:#6ae0ff;fill-opacity:1;fill-rule:evenodd;stroke:#6ae0ff;stroke-width:1.00000003pt;stroke-opacity:1"
         d="M 5.77,0 -2.88,5 V -5 Z"
         id="path12415"
         inkscape:connector-curvature="0" />
    </marker>
    <marker
       inkscape:stockid="EmptyTriangleOutM"
       orient="auto"
       refY="0"
       refX="0"
       id="EmptyTriangleOutM"
       style="overflow:visible"
       inkscape:isstock="true">
      <path
         id="path12304"
         d="M 5.77,0 -2.88,5 V -5 Z"
         style="fill:#ffffff;fill-rule:evenodd;stroke:#ff5555;stroke-width:1.00000003pt;stroke-opacity:1"
         transform="matrix(0.4,0,0,0.4,-1.8,0)"
         inkscape:connector-curvature="0" />
    </marker>
    <marker
       inkscape:stockid="TriangleOutL"
       orient="auto"
       refY="0"
       refX="0"
       id="TriangleOutL"
       style="overflow:visible"
       inkscape:isstock="true">
      <path
         id="path12283"
         d="M 5.77,0 -2.88,5 V -5 Z"
         style="fill:#ff5555;fill-opacity:1;fill-rule:evenodd;stroke:#ff5555;stroke-width:1.00000003pt;stroke-opacity:1"
         transform="scale(0.8)"
         inkscape:connector-curvature="0" />
    </marker>
    <marker
       inkscape:stockid="Arrow1Lend"
       orient="auto"
       refY="0"
       refX="0"
       id="marker12404"
       style="overflow:visible"
       inkscape:isstock="true">
      <path
         id="path12144"
         d="M 0,0 5,-5 -12.5,0 5,5 Z"
         style="fill:#ff5555;fill-opacity:1;fill-rule:evenodd;stroke:#ff5555;stroke-width:1.00000003pt;stroke-opacity:1"
         transform="matrix(-0.8,0,0,-0.8,-10,0)"
         inkscape:connector-curvature="0" />
    </marker>
    <marker
       inkscape:stockid="Arrow1Send"
       orient="auto"
       refY="0"
       refX="0"
       id="marker47057"
       style="overflow:visible"
       inkscape:isstock="true">
      <path
         id="path47055"
         d="M 0,0 5,-5 -12.5,0 5,5 Z"
         style="fill:#ff5555;fill-opacity:1;fill-rule:evenodd;stroke:#ff5555;stroke-width:1.00000003pt;stroke-opacity:1"
         transform="matrix(-0.2,0,0,-0.2,-1.2,0)"
         inkscape:connector-curvature="0" />
    </marker>
    <marker
       inkscape:isstock="true"
       style="overflow:visible"
       id="marker8689"
       refX="0"
       refY="0"
       orient="auto"
       inkscape:stockid="Arrow1Send">
      <path
         transform="matrix(-0.2,0,0,-0.2,-1.2,0)"
         style="fill:#aade87;fill-opacity:1;fill-rule:evenodd;stroke:#aade87;stroke-width:1.00000003pt;stroke-opacity:1"
         d="M 0,0 5,-5 -12.5,0 5,5 Z"
         id="path8687"
         inkscape:connector-curvature="0" />
    </marker>
    <marker
       inkscape:stockid="TriangleOutM"
       orient="auto"
       refY="0"
       refX="0"
       id="TriangleOutM"
       style="overflow:visible"
       inkscape:isstock="true">
      <path
         id="path8374"
         d="M 5.77,0 -2.88,5 V -5 Z"
         style="fill:#55d400;fill-opacity:1;fill-rule:evenodd;stroke:#55d400;stroke-width:1.00000003pt;stroke-opacity:1"
         transform="scale(0.4)"
         inkscape:connector-curvature="0" />
    </marker>
    <marker
       inkscape:stockid="TriangleOutS"
       orient="auto"
       refY="0"
       refX="0"
       id="TriangleOutS"
       style="overflow:visible"
       inkscape:isstock="true">
      <path
         id="path8377"
         d="M 5.77,0 -2.88,5 V -5 Z"
         style="fill:#55d400;fill-opacity:1;fill-rule:evenodd;stroke:#55d400;stroke-width:1.00000003pt;stroke-opacity:1"
         transform="scale(0.2)"
         inkscape:connector-curvature="0" />
    </marker>
    <marker
       inkscape:stockid="Arrow1Mend"
       orient="auto"
       refY="0"
       refX="0"
       id="Arrow1Mend"
       style="overflow:visible"
       inkscape:isstock="true">
      <path
         id="path8238"
         d="M 0,0 5,-5 -12.5,0 5,5 Z"
         style="fill:#55d400;fill-opacity:1;fill-rule:evenodd;stroke:#55d400;stroke-width:1.00000003pt;stroke-opacity:1"
         transform="matrix(-0.4,0,0,-0.4,-4,0)"
         inkscape:connector-curvature="0" />
    </marker>
    <marker
       inkscape:stockid="Arrow2Mstart"
       orient="auto"
       refY="0"
       refX="0"
       id="marker12203"
       style="overflow:visible"
       inkscape:isstock="true">
      <path
         id="path12201"
         style="fill:#37abc8;fill-opacity:1;fill-rule:evenodd;stroke:#37abc8;stroke-width:0.625;stroke-linejoin:round;stroke-opacity:1"
         d="M 8.7185878,4.0337352 -2.2072895,0.01601326 8.7185884,-4.0017078 c -1.7454984,2.3720609 -1.7354408,5.6174519 -6e-7,8.035443 z"
         transform="scale(0.6)"
         inkscape:connector-curvature="0" />
    </marker>
    <marker
       inkscape:isstock="true"
       style="overflow:visible"
       id="marker11813"
       refX="0"
       refY="0"
       orient="auto"
       inkscape:stockid="Arrow2Mstart">
      <path
         transform="scale(0.6)"
         d="M 8.7185878,4.0337352 -2.2072895,0.01601326 8.7185884,-4.0017078 c -1.7454984,2.3720609 -1.7354408,5.6174519 -6e-7,8.035443 z"
         style="fill:#37abc8;fill-opacity:1;fill-rule:evenodd;stroke:#37abc8;stroke-width:0.625;stroke-linejoin:round;stroke-opacity:1"
         id="path11811"
         inkscape:connector-curvature="0" />
    </marker>
    <marker
       inkscape:isstock="true"
       style="overflow:visible"
       id="Arrow1Mstart"
       refX="0"
       refY="0"
       orient="auto"
       inkscape:stockid="Arrow1Mstart">
      <path
         transform="matrix(0.4,0,0,0.4,4,0)"
         style="fill:#000000;fill-opacity:1;fill-rule:evenodd;stroke:#000000;stroke-width:1.00000003pt;stroke-opacity:1"
         d="M 0,0 5,-5 -12.5,0 5,5 Z"
         id="path6360"
         inkscape:connector-curvature="0" />
    </marker>
    <marker
       inkscape:stockid="Arrow2Mend"
       orient="auto"
       refY="0"
       refX="0"
       id="marker11051"
       style="overflow:visible"
       inkscape:isstock="true">
      <path
         id="path11049"
         style="fill:#000000;fill-opacity:1;fill-rule:evenodd;stroke:#000000;stroke-width:0.625;stroke-linejoin:round;stroke-opacity:1"
         d="M 8.7185878,4.0337352 -2.2072895,0.01601326 8.7185884,-4.0017078 c -1.7454984,2.3720609 -1.7354408,5.6174519 -6e-7,8.035443 z"
         transform="scale(-0.6)"
         inkscape:connector-curvature="0" />
    </marker>
    <marker
       inkscape:isstock="true"
       style="overflow:visible"
       id="marker10963"
       refX="0"
       refY="0"
       orient="auto"
       inkscape:stockid="Arrow2Mstart">
      <path
         transform="scale(0.6)"
         d="M 8.7185878,4.0337352 -2.2072895,0.01601326 8.7185884,-4.0017078 c -1.7454984,2.3720609 -1.7354408,5.6174519 -6e-7,8.035443 z"
         style="fill:#000000;fill-opacity:1;fill-rule:evenodd;stroke:#000000;stroke-width:0.625;stroke-linejoin:round;stroke-opacity:1"
         id="path10961"
         inkscape:connector-curvature="0" />
    </marker>
    <linearGradient
       osb:paint="solid"
       id="linearGradient10099">
      <stop
         id="stop10097"
         offset="0"
         style="stop-color:#3f6684;stop-opacity:1;" />
    </linearGradient>
    <linearGradient
       id="linearGradient10089">
      <stop
         style="stop-color:#3f6684;stop-opacity:1;"
         offset="0"
         id="stop10087" />
    </linearGradient>
    <marker
       inkscape:isstock="true"
       style="overflow:visible"
       id="Arrow2Mend"
       refX="0"
       refY="0"
       orient="auto"
       inkscape:stockid="Arrow2Mend">
      <path
         transform="scale(-0.6)"
         d="M 8.7185878,4.0337352 -2.2072895,0.01601326 8.7185884,-4.0017078 c -1.7454984,2.3720609 -1.7354408,5.6174519 -6e-7,8.035443 z"
         style="fill:#3f6684;fill-opacity:1;fill-rule:evenodd;stroke:#3f6684;stroke-width:0.625;stroke-linejoin:round;stroke-opacity:1"
         id="path6381"
         inkscape:connector-curvature="0" />
    </marker>
    <marker
       inkscape:isstock="true"
       style="overflow:visible"
       id="Arrow2Mstart"
       refX="0"
       refY="0"
       orient="auto"
       inkscape:stockid="Arrow2Mstart">
      <path
         transform="scale(0.6)"
         d="M 8.7185878,4.0337352 -2.2072895,0.01601326 8.7185884,-4.0017078 c -1.7454984,2.3720609 -1.7354408,5.6174519 -6e-7,8.035443 z"
         style="fill:#000000;fill-opacity:1;fill-rule:evenodd;stroke:#000000;stroke-width:0.625;stroke-linejoin:round;stroke-opacity:1"
         id="path6378"
         inkscape:connector-curvature="0" />
    </marker>
    <marker
       inkscape:stockid="Arrow2Mend"
       orient="auto"
       refY="0"
       refX="0"
       id="marker9114"
       style="overflow:visible"
       inkscape:isstock="true">
      <path
         id="path9112"
         style="fill:#3f6684;fill-opacity:1;fill-rule:evenodd;stroke:#3f6684;stroke-width:0.625;stroke-linejoin:round;stroke-opacity:1"
         d="M 8.7185878,4.0337352 -2.2072895,0.01601326 8.7185884,-4.0017078 c -1.7454984,2.3720609 -1.7354408,5.6174519 -6e-7,8.035443 z"
         transform="scale(-0.6)"
         inkscape:connector-curvature="0" />
    </marker>
    <marker
       inkscape:isstock="true"
       style="overflow:visible"
       id="marker8876"
       refX="0"
       refY="0"
       orient="auto"
       inkscape:stockid="Arrow2Mend">
      <path
         transform="scale(-0.6)"
         d="M 8.7185878,4.0337352 -2.2072895,0.01601326 8.7185884,-4.0017078 c -1.7454984,2.3720609 -1.7354408,5.6174519 -6e-7,8.035443 z"
         style="fill:#3f6684;fill-opacity:1;fill-rule:evenodd;stroke:#3f6684;stroke-width:0.625;stroke-linejoin:round;stroke-opacity:1"
         id="path8874"
         inkscape:connector-curvature="0" />
    </marker>
    <marker
       inkscape:stockid="Arrow2Mend"
       orient="auto"
       refY="0"
       refX="0"
       id="marker7758"
       style="overflow:visible"
       inkscape:isstock="true">
      <path
         id="path7756"
         style="fill:#3f6684;fill-opacity:1;fill-rule:evenodd;stroke:#3f6684;stroke-width:0.625;stroke-linejoin:round;stroke-opacity:1"
         d="M 8.7185878,4.0337352 -2.2072895,0.01601326 8.7185884,-4.0017078 c -1.7454984,2.3720609 -1.7354408,5.6174519 -6e-7,8.035443 z"
         transform="scale(-0.6)"
         inkscape:connector-curvature="0" />
    </marker>
    <marker
       inkscape:isstock="true"
       style="overflow:visible"
       id="Arrow1Lend"
       refX="0"
       refY="0"
       orient="auto"
       inkscape:stockid="Arrow1Lend">
      <path
         transform="matrix(-0.8,0,0,-0.8,-10,0)"
         style="fill:#3f6684;fill-opacity:1;fill-rule:evenodd;stroke:#3f6684;stroke-width:1.00000003pt;stroke-opacity:1"
         d="M 0,0 5,-5 -12.5,0 5,5 Z"
         id="path6357"
         inkscape:connector-curvature="0" />
    </marker>
    <clipPath
       id="clipPath1418"
       clipPathUnits="userSpaceOnUse">
      <path
         style="clip-rule:evenodd"
         inkscape:connector-curvature="0"
         id="path1416"
         d="M 28,28 H 568 V 814 H 28 Z" />
    </clipPath>
    <clipPath
       id="clipPath1434"
       clipPathUnits="userSpaceOnUse">
      <path
         style="clip-rule:evenodd"
         inkscape:connector-curvature="0"
         id="path1432"
         d="m 87,83.5 h 22.5 v 10 H 87 Z" />
    </clipPath>
    <clipPath
       id="clipPath1456"
       clipPathUnits="userSpaceOnUse">
      <path
         style="clip-rule:evenodd"
         inkscape:connector-curvature="0"
         id="path1454"
         d="M 28,28 H 568 V 814 H 28 Z" />
    </clipPath>
    <clipPath
       id="clipPath1472"
       clipPathUnits="userSpaceOnUse">
      <path
         style="clip-rule:evenodd"
         inkscape:connector-curvature="0"
         id="path1470"
         d="M 149.5,83.5 H 172 v 10 h -22.5 z" />
    </clipPath>
    <clipPath
       id="clipPath1494"
       clipPathUnits="userSpaceOnUse">
      <path
         style="clip-rule:evenodd"
         inkscape:connector-curvature="0"
         id="path1492"
         d="M 28,28 H 568 V 814 H 28 Z" />
    </clipPath>
    <clipPath
       id="clipPath1508"
       clipPathUnits="userSpaceOnUse">
      <path
         style="clip-rule:evenodd"
         inkscape:connector-curvature="0"
         id="path1506"
         d="m 38,134 h 22.5 v 10 H 38 Z" />
    </clipPath>
    <clipPath
       id="clipPath1530"
       clipPathUnits="userSpaceOnUse">
      <path
         style="clip-rule:evenodd"
         inkscape:connector-curvature="0"
         id="path1528"
         d="M 28,28 H 568 V 814 H 28 Z" />
    </clipPath>
    <clipPath
       id="clipPath1596"
       clipPathUnits="userSpaceOnUse">
      <path
         style="clip-rule:evenodd"
         inkscape:connector-curvature="0"
         id="path1594"
         d="m 38,203.5 h 22.5 v 10 H 38 Z" />
    </clipPath>
    <clipPath
       id="clipPath1618"
       clipPathUnits="userSpaceOnUse">
      <path
         style="clip-rule:evenodd"
         inkscape:connector-curvature="0"
         id="path1616"
         d="M 28,28 H 568 V 814 H 28 Z" />
    </clipPath>
    <clipPath
       id="clipPath1648"
       clipPathUnits="userSpaceOnUse">
      <path
         style="clip-rule:evenodd"
         inkscape:connector-curvature="0"
         id="path1646"
         d="m 218,203.5 h 22.5 v 10 H 218 Z" />
    </clipPath>
    <clipPath
       id="clipPath1670"
       clipPathUnits="userSpaceOnUse">
      <path
         style="clip-rule:evenodd"
         inkscape:connector-curvature="0"
         id="path1668"
         d="M 28,28 H 568 V 814 H 28 Z" />
    </clipPath>
    <clipPath
       id="clipPath1700"
       clipPathUnits="userSpaceOnUse">
      <path
         style="clip-rule:evenodd"
         inkscape:connector-curvature="0"
         id="path1698"
         d="m 398,203.5 h 22.5 v 10 H 398 Z" />
    </clipPath>
    <clipPath
       id="clipPath1722"
       clipPathUnits="userSpaceOnUse">
      <path
         style="clip-rule:evenodd"
         inkscape:connector-curvature="0"
         id="path1720"
         d="M 28,28 H 568 V 814 H 28 Z" />
    </clipPath>
    <clipPath
       id="clipPath2057"
       clipPathUnits="userSpaceOnUse">
      <path
         style="clip-rule:evenodd"
         inkscape:connector-curvature="0"
         id="path2055"
         d="M 28,28 H 568 V 814 H 28 Z" />
    </clipPath>
    <clipPath
       id="clipPath2071"
       clipPathUnits="userSpaceOnUse">
      <path
         style="clip-rule:evenodd"
         inkscape:connector-curvature="0"
         id="path2069"
         d="m 36,28.5 h 524 v 599 H 36 Z" />
    </clipPath>
    <mask
       maskUnits="userSpaceOnUse"
       id="mask15347">
      <rect
         style="opacity:1;fill:#ffffff;fill-opacity:1;stroke:#000000;stroke-width:0;stroke-miterlimit:4;stroke-dasharray:none;stroke-dashoffset:0;stroke-opacity:1"
         id="rect15349"
         width="104.48958"
         height="25.287432"
         x="545.82678"
         y="297.55621" />
    </mask>
    <clipPath
       id="clipPath16042"
       clipPathUnits="userSpaceOnUse">
      <path
         style="clip-rule:evenodd"
         inkscape:connector-curvature="0"
         id="path16040"
         d="M 28,28 H 568 V 814 H 28 Z" />
    </clipPath>
    <clipPath
       id="clipPath16058"
       clipPathUnits="userSpaceOnUse">
      <path
         style="clip-rule:evenodd"
         inkscape:connector-curvature="0"
         id="path16056"
         d="m 110.5,51 h 375 v 150 h -375 z" />
    </clipPath>
    <linearGradient
       id="linearGradient16234"
       spreadMethod="pad"
       gradientTransform="matrix(418.75,0,0,96.666669,-478.44883,-5.0280175)"
       gradientUnits="userSpaceOnUse"
       y2="0"
       x2="1"
       y1="0"
       x1="0">
      <stop
         id="stop16230"
         offset="0"
         style="stop-opacity:1;stop-color:#39c7ea" />
      <stop
         id="stop16232"
         offset="1"
         style="stop-opacity:1;stop-color:#4cdcba" />
    </linearGradient>
    <clipPath
       id="clipPath16280"
       clipPathUnits="userSpaceOnUse">
      <path
         style="clip-rule:evenodd"
         inkscape:connector-curvature="0"
         id="path16278"
         d="M 28,28 H 568 V 814 H 28 Z" />
    </clipPath>
    <clipPath
       id="clipPath16470"
       clipPathUnits="userSpaceOnUse">
      <path
         style="clip-rule:evenodd"
         inkscape:connector-curvature="0"
         id="path16468"
         d="m 201,439 h 31 v 15 h -31 z" />
    </clipPath>
    <clipPath
       id="clipPath16484"
       clipPathUnits="userSpaceOnUse">
      <path
         style="clip-rule:evenodd"
         inkscape:connector-curvature="0"
         id="path16482"
         d="M 28,28 H 568 V 814 H 28 Z" />
    </clipPath>
    <clipPath
       id="clipPath16514"
       clipPathUnits="userSpaceOnUse">
      <path
         style="clip-rule:evenodd"
         inkscape:connector-curvature="0"
         id="path16512"
         d="m 110.5,530 h 375 v 150 h -375 z" />
    </clipPath>
    <clipPath
       id="clipPath16792"
       clipPathUnits="userSpaceOnUse">
      <path
         style="clip-rule:evenodd"
         inkscape:connector-curvature="0"
         id="path16790"
         d="M 28,28 H 568 V 814 H 28 Z" />
    </clipPath>
    <clipPath
       clipPathUnits="userSpaceOnUse"
       id="clipPath16">
      <path
         d="M 0,38 H 38 V 0 H 0 Z"
         id="path18"
         inkscape:connector-curvature="0" />
    </clipPath>
    <clipPath
       clipPathUnits="userSpaceOnUse"
       id="clipPath16-2">
      <path
         d="M 0,38 H 38 V 0 H 0 Z"
         id="path18-2"
         inkscape:connector-curvature="0" />
    </clipPath>
    <clipPath
       clipPathUnits="userSpaceOnUse"
       id="clipPath16-4">
      <path
         d="M 0,38 H 38 V 0 H 0 Z"
         id="path18-0"
         inkscape:connector-curvature="0" />
    </clipPath>
    <clipPath
       clipPathUnits="userSpaceOnUse"
       id="clipPath16-5">
      <path
         d="M 0,38 H 38 V 0 H 0 Z"
         id="path18-7"
         inkscape:connector-curvature="0" />
    </clipPath>
    <clipPath
       clipPathUnits="userSpaceOnUse"
       id="clipPath16-0">
      <path
         d="M 0,38 H 38 V 0 H 0 Z"
         id="path18-5"
         inkscape:connector-curvature="0" />
    </clipPath>
    <clipPath
       clipPathUnits="userSpaceOnUse"
       id="clipPath16-3">
      <path
         d="M 0,38 H 38 V 0 H 0 Z"
         id="path18-03"
         inkscape:connector-curvature="0" />
    </clipPath>
  </defs>
  <sodipodi:namedview
     id="base"
     pagecolor="#ffffff"
     bordercolor="#666666"
     borderopacity="1.0"
     inkscape:pageopacity="0.0"
     inkscape:pageshadow="2"
     inkscape:zoom="1.0788703"
     inkscape:cx="414.03684"
     inkscape:cy="311.86648"
     inkscape:document-units="px"
     inkscape:current-layer="layer11"
     showgrid="false"
     borderlayer="true"
     inkscape:window-width="2223"
     inkscape:window-height="1193"
     inkscape:window-x="1426"
     inkscape:window-y="196"
     inkscape:window-maximized="0"
     showguides="true"
     inkscape:guide-bbox="true"
     objecttolerance="8"
     inkscape:measure-start="0,0"
     inkscape:measure-end="0,0"
     units="px">
    <inkscape:grid
       type="xygrid"
       id="grid4136" />
    <sodipodi:guide
       position="850.49072,25.880621"
       orientation="0,1"
       id="guide19460"
       inkscape:locked="false" />
  </sodipodi:namedview>
  <metadata
     id="metadata7">
    <rdf:RDF>
      <cc:Work
         rdf:about="">
        <dc:format>image/svg+xml</dc:format>
        <dc:type
           rdf:resource="http://purl.org/dc/dcmitype/StillImage" />
        <dc:title></dc:title>
      </cc:Work>
    </rdf:RDF>
  </metadata>
  <g
     inkscape:groupmode="layer"
     id="layer11"
     inkscape:label="NUMEROS"
     transform="translate(0,-583.61215)">
    <path
       style="display:inline;fill:#000000;fill-opacity:1;fill-rule:nonzero;stroke:none;stroke-width:24.99999046;stroke-linecap:butt;stroke-linejoin:miter;stroke-miterlimit:10;stroke-dasharray:none;stroke-opacity:1"
       d="M 250 0 C 111.99978 0 0 111.75024 0 250 C 0 387.9999 111.99978 500 250 500 C 387.99984 500 500 387.9999 500 250 C 500 111.75024 387.99984 0 250 0 z M 303.64062 125 C 322.71431 125 338.04297 140.32675 338.04297 159.40039 C 338.04297 171.32155 332.25094 181.53898 323.05469 187.66992 C 331.22928 191.07396 338.04247 196.18588 343.49219 202.99805 C 325.44052 207.42568 310.45279 220.36747 303.64062 237.73828 C 296.82884 220.70824 281.84265 207.42568 263.79102 202.99805 C 269.24075 196.18588 276.05195 191.07569 284.22656 187.66992 C 275.03033 181.53898 269.24023 170.9807 269.24023 159.40039 C 269.24023 140.32675 284.56693 125 303.64062 125 z M 196.69336 125.33984 C 215.76703 125.33984 231.09375 140.66694 231.09375 159.74023 C 231.09375 171.32096 225.30324 181.88119 216.10742 188.01172 C 224.28162 191.41784 231.09323 196.52572 236.54297 203.33789 C 226.66552 205.722 217.13009 210.83082 209.63672 218.32422 C 203.84657 224.11431 199.41743 230.58567 196.69336 237.73828 C 189.8816 220.70824 174.8958 207.42474 156.84375 203.33789 C 162.29349 196.52572 169.10469 191.41576 177.2793 188.01172 C 168.08307 181.88119 162.29297 171.66127 162.29297 159.74023 C 162.29297 140.66694 177.62009 125.33984 196.69336 125.33984 z M 357.11523 218.66406 L 358.81836 218.66406 C 379.5953 219.34535 396.62641 236.37635 397.64648 256.8125 C 398.3277 271.45801 391.17543 284.40054 379.93555 292.23438 C 401.39241 301.0902 416.3971 322.20774 416.03711 346.73047 L 416.03711 366.82617 C 416.03711 371.25236 412.28898 375 407.86133 375 L 309.42969 375 L 297.50781 375 L 202.48047 375 L 190.55859 375 L 92.126953 375 C 87.700451 375 83.951172 371.25395 83.951172 366.82617 L 83.951172 346.73047 C 83.951172 322.20711 98.938763 301.0892 120.39648 293.25586 C 109.49742 286.10284 102.68555 273.84124 102.68555 259.87695 C 102.68555 237.39719 120.73745 219.3457 143.2168 219.3457 L 144.91992 219.3457 C 165.69643 220.02686 182.72801 237.05652 183.74805 257.49219 C 184.42926 272.13812 177.27698 285.08226 166.03711 292.91602 C 179.66106 298.3658 190.22005 308.58256 196.69141 321.52539 C 203.16277 308.58256 214.06257 298.3658 227.3457 292.91602 C 216.44663 285.76347 209.63477 273.50195 209.63477 259.53711 C 209.63477 237.05777 227.68664 219.00586 250.16602 219.00586 L 251.86914 219.00586 C 272.64564 219.68715 289.67724 236.71619 290.69727 257.15234 C 291.37852 271.79778 284.22625 284.74012 272.98633 292.57422 C 286.61027 298.02359 297.16925 308.24278 303.64062 321.18555 C 310.11199 308.24278 321.0114 298.02359 334.29492 292.57422 C 323.39586 285.42127 316.58398 273.15974 316.58398 259.19531 C 316.58398 236.71556 334.63548 218.66406 357.11523 218.66406 z "
       transform="matrix(0.9375,0,0,0.9375,0,583.61215)"
       id="path3146" />
  </g>
</svg>
